{
  "accessors": [
    {
      "bufferView": 2,
      "componentType": 5126,
      "count": 8474,
      "max": [
        2.914957284927368,
        4.565540790557861,
        1.3914263248443604
      ],
      "min": [
        -2.914957284927368,
        -1.7895177602767944,
        -1.869620442390442
      ],
      "type": "VEC3"
    },
    {
      "bufferView": 2,
      "byteOffset": 101688,
      "componentType": 5126,
      "count": 8474,
      "max": [
        0.9954214096069336,
        0.9998428225517273,
        0.9930607080459595
      ],
      "min": [
        -0.9954214096069336,
        -0.9691031575202942,
        -0.9992266297340393
      ],
      "type": "VEC3"
    },
    {
      "bufferView": 1,
      "componentType": 5126,
      "count": 8474,
      "max": [
        1.0,
        1.0
      ],
      "min": [
        2.220446049250313e-16,
        9.692929597804323e-05
      ],
      "type": "VEC2"
    },
    {
      "bufferView": 0,
      "componentType": 5125,
      "count": 12456,
      "type": "SCALAR"
    },
    {
      "bufferView": 2,
      "byteOffset": 203376,
      "componentType": 5126,
      "count": 559,
      "max": [
        0.9999997019767761,
        1.0,
        0.9999993443489075
      ],
      "min": [
        -0.9999990463256836,
        -1.0,
        -1.0
      ],
      "type": "VEC3"
    },
    {
      "bufferView": 2,
      "byteOffset": 210084,
      "componentType": 5126,
      "count": 559,
      "max": [
        1.0,
        1.0,
        1.0
      ],
      "min": [
        -1.0,
        -1.0,
        -1.0
      ],
      "type": "VEC3"
    },
    {
      "bufferView": 1,
      "byteOffset": 67792,
      "componentType": 5126,
      "count": 559,
      "max": [
        1.0,
        1.0
      ],
      "min": [
        0.0,
        0.0
      ],
      "type": "VEC2"
    },
    {
      "bufferView": 0,
      "byteOffset": 49824,
      "componentType": 5125,
      "count": 2880,
      "type": "SCALAR"
    },
    {
      "bufferView": 3,
      "componentType": 5126,
      "count": 53,
      "max": [
        4.166666507720947
      ],
      "min": [
        0.0416666679084301
      ],
      "type": "SCALAR"
    },
    {
      "bufferView": 4,
      "componentType": 5126,
      "count": 53,
      "max": [
        -0.18581461906433105,
        0.0,
        0.07737383246421814
      ],
      "min": [
        -0.18581461906433105,
        -7.592615127563477,
        0.07737383246421814
      ],
      "type": "VEC3"
    },
    {
      "bufferView": 3,
      "byteOffset": 212,
      "componentType": 5126,
      "count": 62,
      "max": [
        4.166666507720947
      ],
      "min": [
        0.0416666679084301
      ],
      "type": "SCALAR"
    },
    {
      "bufferView": 5,
      "componentType": 5126,
      "count": 62,
      "max": [
        -4.565727067529224e-07,
        -0.0006757015362381935,
        0.0006757015944458544,
        0.9999995231628418
      ],
      "min": [
        -0.33965250849723816,
        -0.0008650352829135954,
        0.0004060282662976533,
        0.9405505061149597
      ],
      "type": "VEC4"
    },
    {
      "bufferView": 3,
      "byteOffset": 460,
      "componentType": 5126,
      "count": 3,
      "max": [
        4.166666507720947
      ],
      "min": [
        0.0416666679084301
      ],
      "type": "SCALAR"
    },
    {
      "bufferView": 4,
      "byteOffset": 636,
      "componentType": 5126,
      "count": 3,
      "max": [
        1.0,
        1.0,
        1.0
      ],
      "min": [
        1.0,
        0.9999999403953552,
        1.0
      ],
      "type": "VEC3"
    },
    {
      "bufferView": 3,
      "byteOffset": 472,
      "componentType": 5126,
      "count": 61,
      "max": [
        2.5
      ],
      "min": [
        0.0
      ],
      "type": "SCALAR"
    },
    {
      "bufferView": 4,
      "byteOffset": 672,
      "componentType": 5126,
      "count": 61,
      "max": [
        0.006428438704460859,
        0.0,
        0.3422006368637085
      ],
      "min": [
        -0.19134652614593506,
        -7.739645481109619,
        -0.0040206084959208965
      ],
      "type": "VEC3"
    },
    {
      "bufferView": 3,
      "byteOffset": 716,
      "componentType": 5126,
      "count": 61,
      "max": [
        2.5
      ],
      "min": [
        0.0
      ],
      "type": "SCALAR"
    },
    {
      "bufferView": 5,
      "byteOffset": 992,
      "componentType": 5126,
      "count": 61,
      "max": [
        0.0,
        7.179709064075723e-05,
        0.0015411032363772392,
        1.0
      ],
      "min": [
        -0.343178391456604,
        -0.0018092402024194598,
        -3.3699951018206775e-05,
        0.9392702579498291
      ],
      "type": "VEC4"
    }
  ],
  "animations": [
    {
      "channels": [
        {
          "sampler": 0,
          "target": {
            "node": 3,
            "path": "translation"
          }
        },
        {
          "sampler": 1,
          "target": {
            "node": 3,
            "path": "rotation"
          }
        },
        {
          "sampler": 2,
          "target": {
            "node": 3,
            "path": "scale"
          }
        }
      ],
      "name": "Action",
      "samplers": [
        {
          "input": 8,
          "interpolation": "LINEAR",
          "output": 9
        },
        {
          "input": 10,
          "interpolation": "LINEAR",
          "output": 11
        },
        {
          "input": 12,
          "interpolation": "LINEAR",
          "output": 13
        }
      ]
    },
    {
      "channels": [
        {
          "sampler": 0,
          "target": {
            "node": 3,
            "path": "translation"
          }
        },
        {
          "sampler": 1,
          "target": {
            "node": 3,
            "path": "rotation"
          }
        }
      ],
      "name": "CubeAction",
      "samplers": [
        {
          "input": 14,
          "interpolation": "LINEAR",
          "output": 15
        },
        {
          "input": 16,
          "interpolation": "LINEAR",
          "output": 17
        }
      ]
    }
  ],
  "asset": {
    "extras": {
      "author": "Musgo One (https://sketchfab.com/musgo.one)",
      "license": "CC-BY-4.0 (http://creativecommons.org/licenses/by/4.0/)",
      "source": "https://sketchfab.com/3d-models/mf-doom-mask-a226e9c662dd463ab1e7cefdfe7a0c42",
      "title": "MF DOOM mask"
    },
    "generator": "Sketchfab-14.41.0",
    "version": "2.0"
  },
  "bufferViews": [
    {
      "buffer": 0,
      "byteLength": 61344,
      "name": "floatBufferViews",
      "target": 34963
    },
    {
      "buffer": 0,
      "byteLength": 72264,
      "byteOffset": 61344,
      "byteStride": 8,
      "name": "floatBufferViews",
      "target": 34962
    },
    {
      "buffer": 0,
      "byteLength": 216792,
      "byteOffset": 133608,
      "byteStride": 12,
      "name": "floatBufferViews",
      "target": 34962
    },
    {
      "buffer": 0,
      "byteLength": 960,
      "byteOffset": 350400,
      "name": "floatBufferViews"
    },
    {
      "buffer": 0,
      "byteLength": 1404,
      "byteOffset": 351360,
      "byteStride": 12,
      "name": "floatBufferViews"
    },
    {
      "buffer": 0,
      "byteLength": 1968,
      "byteOffset": 352764,
      "byteStride": 16,
      "name": "floatBufferViews"
    }
  ],
  "buffers": [
    {
      "byteLength": 354732,
      "uri": "scene.bin"
    }
  ],
  "materials": [
    {
      "doubleSided": true,
      "name": "Weathered_Metal_Gloss"
    },
    {
      "doubleSided": true,
      "emissiveFactor": [
        1.0,
        0.0,
        0.001478009999999995
      ],
      "name": "Material.001",
      "pbrMetallicRoughness": {
        "baseColorFactor": [
          0.1386670892711292,
          0.1386670892711292,
          0.1386670892711292,
          1.0
        ],
        "roughnessFactor": 0.6297131572210506
      }
    }
  ],
  "meshes": [
    {
      "name": "Object_0",
      "primitives": [
        {
          "attributes": {
            "NORMAL": 1,
            "POSITION": 0,
            "TEXCOORD_0": 2
          },
          "indices": 3,
          "material": 0,
          "mode": 4
        }
      ]
    },
    {
      "name": "Object_1",
      "primitives": [
        {
          "attributes": {
            "NORMAL": 5,
            "POSITION": 4,
            "TEXCOORD_0": 6
          },
          "indices": 7,
          "material": 1,
          "mode": 4
        }
      ]
    }
  ],
  "nodes": [
    {
      "children": [
        1
      ],
      "matrix": [
        1.0,
        0.0,
        0.0,
        0.0,
        0.0,
        2.220446049250313e-16,
        -1.0,
        0.0,
        0.0,
        1.0,
        2.220446049250313e-16,
        0.0,
        0.0,
        0.0,
        0.0,
        1.0
      ],
      "name": "Sketchfab_model"
    },
    {
      "children": [
        2
      ],
      "name": "root"
    },
    {
      "children": [
        3
      ],
      "matrix": [
        1.0,
        0.0,
        0.0,
        0.0,
        0.0,
        2.220446049250313e-16,
        1.0,
        0.0,
        0.0,
        -1.0,
        2.220446049250313e-16,
        0.0,
        0.0,
        0.0,
        0.0,
        1.0
      ],
      "name": "GLTF_SceneRootNode"
    },
    {
      "children": [
        4,
        5
      ],
      "name": "Cube_4",
      "rotation": [
        -0.3431786894798279,
        -0.000866552407387644,
        0.0004027801041956991,
        0.9392696619033813
      ],
      "translation": [
        -0.18581461906433105,
        -7.592615127563477,
        0.07737383246421814
      ]
    },
    {
      "mesh": 0,
      "name": "Object_4"
    },
    {
      "children": [
        6
      ],
      "matrix": [
        0.10132381319999695,
        0.0,
        0.0,
        0.0,
        0.0,
        -1.7081917914559576e-08,
        0.1013238131999955,
        0.0,
        0.0,
        -0.1013238131999955,
        -1.7081917914559576e-08,
        0.0,
        0.0024990998208522797,
        3.0365192890167236,
        0.9331223964691162,
        1.0
      ],
      "name": "Sphere_3"
    },
    {
      "mesh": 1,
      "name": "Object_6"
    }
  ],
  "scene": 0,
  "scenes": [
    {
      "name": "Sketchfab_Scene",
      "nodes": [
        0
      ]
    }
  ]
}
